<svg width="19" height="15" viewBox="0 0 19 15" fill="none" xmlns="http://www.w3.org/2000/svg">
<path d="M17.0338 1.50364C16.0476 0.653189 14.7404 0.134124 13.3482 0.0402036C11.956 -0.0537164 10.5706 0.283702 9.44236 0.99151C8.25866 0.234227 6.78534 -0.109161 5.31907 0.030495C3.85281 0.170151 2.50253 0.782479 1.54014 1.74417C0.577744 2.70586 0.0747304 3.94548 0.132391 5.21339C0.190052 6.48131 0.804103 7.68335 1.85089 8.57744L7.62822 13.5547C8.11201 13.9642 8.76358 14.1938 9.44236 14.1938C10.1211 14.1938 10.7727 13.9642 11.2565 13.5547L17.0338 8.57744C18.1201 7.63741 18.7297 6.36589 18.7297 5.04054C18.7297 3.71518 18.1201 2.44367 17.0338 1.50364ZM15.7221 7.47316L9.94473 12.4424C9.87899 12.4995 9.80075 12.5448 9.71452 12.5758C9.62829 12.6067 9.53578 12.6226 9.44236 12.6226C9.34893 12.6226 9.25643 12.6067 9.1702 12.5758C9.08397 12.5448 9.00572 12.4995 8.93998 12.4424L3.16265 7.44915C2.43305 6.80766 2.0245 5.94594 2.0245 5.04854C2.0245 4.15114 2.43305 3.28942 3.16265 2.64793C3.90613 2.01656 4.90885 1.66254 5.95363 1.66254C6.99841 1.66254 8.00114 2.01656 8.74461 2.64793C8.8311 2.72293 8.93399 2.78246 9.04736 2.82309C9.16073 2.86371 9.28233 2.88463 9.40514 2.88463C9.52796 2.88463 9.64956 2.86371 9.76293 2.82309C9.8763 2.78246 9.97919 2.72293 10.0657 2.64793C10.8092 2.01656 11.8119 1.66254 12.8567 1.66254C13.9014 1.66254 14.9042 2.01656 15.6476 2.64793C16.3873 3.28101 16.8092 4.13806 16.8231 5.03549C16.8371 5.93291 16.4418 6.79933 15.7221 7.44915V7.47316Z" fill="#E2315C"/>
</svg>
